<svg width="126" height="60" viewBox="0 0 126 60" fill="none" xmlns="http://www.w3.org/2000/svg">
<path d="M10.9204 7.58515C11.3285 7.33421 11.4526 6.80532 11.1975 6.40383C10.9424 6.00234 10.4047 5.88028 9.99654 6.13122C8.35822 7.13841 4.86666 9.81019 4.36201 14.7741C4.31412 15.2452 4.66356 15.6653 5.14251 15.7124C5.62145 15.7595 6.04854 15.4158 6.09644 14.9447C6.52143 10.7643 9.45989 8.48301 10.9204 7.58515Z" fill="url(#paint0_linear_2007_3509)"/>
<path d="M13.5625 29.2006C14.9789 29.5637 17.9452 29.9946 20.1463 29.2179C20.2557 29.1793 20.3148 29.065 20.288 28.9537C19.879 27.2555 19.4495 24.3678 19.2335 22.7466C19.1943 22.4529 19.2748 22.1567 19.4555 21.9197L21.9829 18.6049L25.2876 22.4333L27.9372 18.8599L25.4954 21.0292L19.5398 13.5856L19.5125 13.5892C19.2926 13.3092 18.9531 13.1448 18.5928 13.1448H15.1067C14.7409 13.1448 14.3965 13.3142 14.177 13.6021L13.8229 14.0665L8.25199 21.0292L5.81025 18.8599L8.45976 22.4333L11.739 18.6344L14.2273 21.8978C14.4178 22.1477 14.4961 22.4634 14.4439 22.7715L13.3977 28.9459C13.3783 29.0606 13.4481 29.1713 13.5625 29.2006Z" fill="url(#paint1_linear_2007_3509)"/>
<path fill-rule="evenodd" clip-rule="evenodd" d="M33.6995 16.5739C33.6995 25.7275 26.1556 33.1479 16.8497 33.1479C7.54388 33.1479 0 25.7275 0 16.5739C0 7.4204 7.54388 0 16.8497 0C26.1556 0 33.6995 7.4204 33.6995 16.5739ZM31.3754 16.5739C31.3754 24.4649 24.872 30.8618 16.8497 30.8618C8.82745 30.8618 2.3241 24.4649 2.3241 16.5739C2.3241 8.68296 8.82745 2.28606 16.8497 2.28606C24.872 2.28606 31.3754 8.68296 31.3754 16.5739Z" fill="url(#paint2_linear_2007_3509)"/>
<path d="M13.8008 34.5019C14.9262 34.7786 17.7363 35.1661 19.9733 34.5019C20.1964 35.8957 20.5102 37.6566 20.8589 39.5292L13.4491 36.3488L13.8008 34.5019Z" fill="url(#paint3_linear_2007_3509)"/>
<path d="M12.9139 39.1589L21.4879 42.839C21.6736 43.7994 21.86 44.7509 22.0401 45.6612L12.4589 41.5488L12.9139 39.1589Z" fill="url(#paint4_linear_2007_3509)"/>
<path d="M11.9238 44.3589L10.7741 50.3964C10.7188 50.6866 10.7799 50.9865 10.9444 51.2335L16.7182 59.8967C16.8102 60.0347 17.016 60.0343 17.1074 59.896L22.827 51.2406C22.993 50.9894 23.0526 50.6867 22.9923 50.393C22.9057 49.9707 22.8094 49.4984 22.7057 48.9867L11.9238 44.3589Z" fill="url(#paint5_linear_2007_3509)"/>
<path d="M44.3731 44.5312L45.141 46.5371C45.2434 46.7842 45.3641 47.0712 45.503 47.3983C45.6493 47.718 45.7846 47.9578 45.9089 48.1177C46.0333 48.2703 46.1868 48.3903 46.3697 48.4775C46.5525 48.5719 46.7719 48.6192 47.0279 48.6192C47.4667 48.6192 47.8396 48.4666 48.1468 48.1613C48.4613 47.8488 48.6185 47.5073 48.6185 47.1366C48.6185 46.7805 48.4539 46.21 48.1248 45.4251L43.9234 35.1126C43.7259 34.5967 43.5614 34.186 43.4297 33.8808C43.3054 33.5683 43.1482 33.2776 42.958 33.0087C42.7752 32.7398 42.5302 32.5218 42.2231 32.3546C41.9232 32.1802 41.5466 32.093 41.0932 32.093C40.647 32.093 40.2704 32.1802 39.9633 32.3546C39.6634 32.5218 39.4184 32.7435 39.2283 33.0196C39.0454 33.2958 38.8699 33.6446 38.7017 34.0661C38.5408 34.4804 38.4019 34.8365 38.2849 35.1344L36.6297 39.3101H39.6978L41.0712 35.5051L43.4956 42.1003L35.5235 42.1008L34.1712 45.5124C34.003 45.9266 33.8823 46.25 33.8092 46.4826C33.736 46.7151 33.6995 46.9404 33.6995 47.1584C33.6995 47.5363 33.8567 47.8743 34.1712 48.1722C34.4856 48.4702 34.8476 48.6192 35.2572 48.6192C35.7399 48.6192 36.0872 48.4811 36.2993 48.2049C36.5114 47.9215 36.7674 47.3801 37.0672 46.5807L37.8351 44.5312H44.3731Z" fill="url(#paint6_linear_2007_3509)"/>
<path d="M53.8511 48.3249L53.5769 48.9898C53.3721 49.4767 53.1893 49.8438 53.0284 50.0908C52.8748 50.3452 52.6993 50.5233 52.5018 50.625C52.3044 50.7267 52.0338 50.7776 51.6901 50.7776C51.5511 50.7776 51.3866 50.7558 51.1964 50.7122C51.0428 50.6686 50.8856 50.6468 50.7247 50.6468C50.3152 50.6468 50.0044 50.7376 49.7923 50.9193C49.5875 51.1083 49.4851 51.3735 49.4851 51.7151C49.4851 52.2166 49.7045 52.5618 50.1433 52.7507C50.5821 52.9397 51.2403 53.0342 52.1179 53.0342C53.0174 53.0342 53.7305 52.8961 54.257 52.6199C54.7909 52.351 55.2187 51.9622 55.5405 51.4535C55.8623 50.9448 56.1914 50.2435 56.5278 49.3496L60.433 39.1897C60.5281 38.9281 60.6086 38.6701 60.6744 38.4157C60.7402 38.1613 60.7877 37.9651 60.817 37.827C60.817 37.6017 60.7585 37.3874 60.6415 37.1839C60.5318 36.9804 60.3709 36.8205 60.1588 36.7042C59.954 36.5807 59.7383 36.5189 59.5116 36.5189C59.1971 36.5189 58.9521 36.5734 58.7766 36.6824C58.6084 36.7914 58.4475 37.0022 58.2939 37.3147C58.1403 37.6272 57.9685 38.0596 57.7783 38.6119L55.3759 45.4251L52.8419 38.0996C52.6737 37.5908 52.4799 37.202 52.2605 36.9331C52.0411 36.657 51.7157 36.5189 51.2842 36.5189C51.0355 36.5189 50.7942 36.5843 50.5602 36.7151C50.3335 36.8459 50.1543 37.0203 50.0226 37.2384C49.891 37.4564 49.8252 37.6926 49.8252 37.9469C49.8252 38.1868 49.9385 38.5719 50.1652 39.1025L53.8511 48.3249Z" fill="url(#paint7_linear_2007_3509)"/>
<path d="M70.7667 46.5589V46.9404C70.7667 47.4709 70.8983 47.8852 71.1616 48.1831C71.4322 48.4738 71.7722 48.6192 72.1818 48.6192C72.5913 48.6192 72.9241 48.4775 73.18 48.194C73.4433 47.9106 73.575 47.4855 73.575 46.9186V38.2958C73.575 37.6999 73.4397 37.2565 73.1691 36.9658C72.8985 36.6679 72.5401 36.5189 72.094 36.5189C71.6479 36.5189 71.2859 36.6679 71.008 36.9658C70.7301 37.2638 70.5912 37.7071 70.5912 38.2958V41.915C70.5912 43.3394 70.507 44.2624 70.3388 44.6839C70.1341 45.1635 69.8086 45.5523 69.3625 45.8503C68.9164 46.1483 68.4411 46.2972 67.9364 46.2972C67.4172 46.2972 67.004 46.1664 66.6968 45.9048C66.397 45.6359 66.1886 45.2689 66.0716 44.8038C65.9546 44.3314 65.896 43.75 65.896 43.0596V38.2958C65.896 37.7071 65.7571 37.2638 65.4792 36.9658C65.2013 36.6679 64.8356 36.5189 64.3822 36.5189C63.9361 36.5189 63.5777 36.6679 63.3072 36.9658C63.0366 37.2565 62.9013 37.6999 62.9013 38.2958V44.1933C62.9013 45.3779 63.0878 46.2863 63.4607 46.9186C63.7752 47.4419 64.2177 47.8525 64.7881 48.1504C65.3658 48.4484 66.0167 48.5974 66.7407 48.5974C67.3404 48.5974 67.8743 48.5211 68.3423 48.3685C68.8104 48.2231 69.2419 47.9978 69.6368 47.6926C70.0317 47.3874 70.4083 47.0094 70.7667 46.5589Z" fill="url(#paint8_linear_2007_3509)"/>
<path fill-rule="evenodd" clip-rule="evenodd" d="M84.7752 46.6243V46.9186C84.7752 47.4637 84.9068 47.8852 85.1701 48.1831C85.4407 48.4738 85.7808 48.6192 86.1903 48.6192C86.6072 48.6192 86.9472 48.4775 87.2105 48.194C87.4738 47.9106 87.6054 47.4855 87.6054 46.9186V33.7936C87.6054 33.234 87.4811 32.8125 87.2325 32.5291C86.9911 32.2384 86.6437 32.093 86.1903 32.093C85.7369 32.093 85.3859 32.2493 85.1372 32.5618C84.8959 32.8743 84.7752 33.3358 84.7752 33.9462V38.3394C84.2121 37.7289 83.6343 37.2783 83.042 36.9876C82.4496 36.6897 81.7219 36.5407 80.859 36.5407C79.3671 36.5407 78.164 37.0603 77.2499 38.0996C76.3357 39.1388 75.8786 40.5887 75.8786 42.4491C75.8786 43.3285 75.992 44.1461 76.2187 44.9019C76.4527 45.6577 76.7928 46.3154 77.2389 46.875C77.685 47.4346 78.2116 47.867 78.8186 48.1722C79.4329 48.4702 80.0984 48.6192 80.8151 48.6192C81.3563 48.6192 81.8536 48.5429 82.307 48.3903C82.7677 48.2449 83.1919 48.0305 83.5795 47.7471C83.9744 47.4564 84.373 47.0821 84.7752 46.6243ZM79.2574 44.6076C79.0087 44.0407 78.8844 43.3539 78.8844 42.5472C78.8844 41.7842 79.0014 41.1156 79.2354 40.5414C79.4768 39.96 79.8132 39.5167 80.2446 39.2115C80.6761 38.899 81.1661 38.7427 81.7146 38.7427C82.2412 38.7427 82.7238 38.8953 83.1626 39.2006C83.6087 39.4985 83.9598 39.9346 84.2157 40.5087C84.479 41.0756 84.6107 41.7551 84.6107 42.5472C84.6107 43.3903 84.479 44.0952 84.2157 44.6621C83.9598 45.2217 83.6124 45.6395 83.1736 45.9157C82.7421 46.1846 82.2631 46.319 81.7365 46.319C81.2173 46.319 80.7383 46.1773 80.2995 45.8939C79.8607 45.6032 79.5133 45.1744 79.2574 44.6076Z" fill="url(#paint9_linear_2007_3509)"/>
<path fill-rule="evenodd" clip-rule="evenodd" d="M96.0742 48.2049C96.7543 47.9215 97.4564 47.5 98.1804 46.9404C98.5168 47.4855 98.8349 47.9033 99.1348 48.194C99.4346 48.4775 99.7381 48.6192 100.045 48.6192C100.411 48.6192 100.736 48.4956 101.022 48.2485C101.314 47.9942 101.46 47.7144 101.46 47.4092C101.46 47.2347 101.365 46.8459 101.175 46.2427C100.992 45.6323 100.901 45.0472 100.901 44.4876C100.908 43.8917 100.912 43.3503 100.912 42.8634C100.919 42.3765 100.923 41.7842 100.923 41.0865C100.923 39.9818 100.766 39.0952 100.451 38.4266C100.144 37.758 99.6138 37.2711 98.8605 36.9658C98.1073 36.6533 97.0724 36.4971 95.7561 36.4971C94.5786 36.4971 93.595 36.657 92.8052 36.9767C92.0153 37.2965 91.4339 37.7035 91.0609 38.1977C90.688 38.6919 90.5015 39.2006 90.5015 39.7238C90.5015 40.0581 90.6221 40.3343 90.8635 40.5523C91.1121 40.7631 91.4047 40.8685 91.7411 40.8685C92.1141 40.8685 92.3554 40.8031 92.4651 40.6722C92.5821 40.5342 92.7759 40.2544 93.0465 39.8328C93.3244 39.4113 93.6535 39.0952 94.0338 38.8844C94.4214 38.6737 94.9955 38.5683 95.7561 38.5683C96.641 38.5683 97.2224 38.7536 97.5003 39.1243C97.7855 39.4876 97.9464 40.0618 97.9829 40.8467C97.354 41.0283 96.7689 41.1846 96.2278 41.3154C95.6939 41.439 95.0503 41.577 94.2971 41.7296C93.5438 41.8823 93.0721 41.9804 92.8819 42.024C91.9751 42.2202 91.2621 42.6054 90.7428 43.1795C90.2236 43.7536 89.964 44.4477 89.964 45.2616C89.964 45.8648 90.1212 46.4244 90.4357 46.9404C90.7501 47.4564 91.1962 47.867 91.774 48.1722C92.359 48.4702 93.0355 48.6192 93.8034 48.6192C94.6444 48.6192 95.4014 48.4811 96.0742 48.2049ZM96.0632 43.1468C96.9042 42.9651 97.5441 42.7943 97.9829 42.6344V43.0596C97.9829 44.0916 97.8476 44.8328 97.577 45.2834C97.343 45.6904 96.9737 46.0247 96.4691 46.2863C95.9718 46.5407 95.427 46.6679 94.8346 46.6679C94.2788 46.6679 93.829 46.5116 93.4853 46.1991C93.1416 45.8794 92.9697 45.4942 92.9697 45.0436C92.9697 44.6076 93.116 44.2696 93.4085 44.0298C93.701 43.7827 94.0082 43.6192 94.33 43.5392C94.6517 43.452 95.2295 43.3212 96.0632 43.1468Z" fill="url(#paint10_linear_2007_3509)"/>
<path d="M106.331 41.577V46.6461C106.331 47.3147 106.481 47.8125 106.781 48.1395C107.081 48.4593 107.472 48.6192 107.955 48.6192C108.43 48.6192 108.821 48.4557 109.128 48.1286C109.435 47.8016 109.589 47.3074 109.589 46.6461V41.577L113.615 35.4397C113.951 34.9382 114.189 34.5458 114.328 34.2624C114.467 33.9789 114.536 33.6955 114.536 33.4121C114.536 33.0632 114.398 32.758 114.12 32.4964C113.849 32.2275 113.509 32.093 113.099 32.093C112.836 32.093 112.613 32.1403 112.43 32.2347C112.247 32.3292 112.079 32.4673 111.926 32.649C111.779 32.8234 111.644 33.0124 111.52 33.2158C111.395 33.4193 111.242 33.6701 111.059 33.968L109.456 36.5275L109.458 36.5292L106.32 41.5602L106.331 41.577Z" fill="url(#paint11_linear_2007_3509)"/>
<path d="M104.635 38.9645L106.379 36.1695L105.015 33.968C104.554 33.2195 104.207 32.7217 103.972 32.4746C103.746 32.2202 103.409 32.093 102.963 32.093C102.539 32.093 102.181 32.2275 101.888 32.4964C101.603 32.7653 101.46 33.085 101.46 33.4557C101.46 33.681 101.53 33.9462 101.669 34.2515C101.815 34.5567 102.06 34.9818 102.404 35.5269L104.635 38.9645Z" fill="url(#paint12_linear_2007_3509)"/>
<path fill-rule="evenodd" clip-rule="evenodd" d="M120.614 48.2049C121.294 47.9215 121.996 47.5 122.72 46.9404C123.056 47.4855 123.375 47.9033 123.674 48.194C123.974 48.4775 124.278 48.6192 124.585 48.6192C124.951 48.6192 125.276 48.4956 125.561 48.2485C125.854 47.9942 126 47.7144 126 47.4092C126 47.2347 125.905 46.8459 125.715 46.2427C125.532 45.6323 125.441 45.0472 125.441 44.4876C125.448 43.8917 125.452 43.3503 125.452 42.8634C125.459 42.3765 125.462 41.7842 125.462 41.0865C125.462 39.9818 125.305 39.0952 124.991 38.4266C124.684 37.758 124.153 37.2711 123.4 36.9658C122.647 36.6533 121.612 36.4971 120.296 36.4971C119.118 36.4971 118.135 36.657 117.345 36.9767C116.555 37.2965 115.974 37.7035 115.601 38.1977C115.228 38.6919 115.041 39.2006 115.041 39.7238C115.041 40.0581 115.162 40.3343 115.403 40.5523C115.652 40.7631 115.944 40.8685 116.281 40.8685C116.654 40.8685 116.895 40.8031 117.005 40.6722C117.122 40.5342 117.316 40.2544 117.586 39.8328C117.864 39.4113 118.193 39.0952 118.573 38.8844C118.961 38.6737 119.535 38.5683 120.296 38.5683C121.181 38.5683 121.762 38.7536 122.04 39.1243C122.325 39.4876 122.486 40.0618 122.523 40.8467C121.894 41.0283 121.309 41.1846 120.767 41.3154C120.234 41.439 119.59 41.577 118.837 41.7296C118.083 41.8823 117.612 41.9804 117.422 42.024C116.515 42.2202 115.802 42.6054 115.282 43.1795C114.763 43.7536 114.504 44.4477 114.504 45.2616C114.504 45.8648 114.661 46.4244 114.975 46.9404C115.29 47.4564 115.736 47.867 116.314 48.1722C116.899 48.4702 117.575 48.6192 118.343 48.6192C119.184 48.6192 119.941 48.4811 120.614 48.2049ZM120.603 43.1468C121.444 42.9651 122.084 42.7943 122.523 42.6344V43.0596C122.523 44.0916 122.387 44.8328 122.117 45.2834C121.883 45.6904 121.513 46.0247 121.009 46.2863C120.511 46.5407 119.967 46.6679 119.374 46.6679C118.818 46.6679 118.369 46.5116 118.025 46.1991C117.681 45.8794 117.509 45.4942 117.509 45.0436C117.509 44.6076 117.656 44.2696 117.948 44.0298C118.241 43.7827 118.548 43.6192 118.87 43.5392C119.191 43.452 119.769 43.3212 120.603 43.1468Z" fill="url(#paint13_linear_2007_3509)"/>
<defs>
<linearGradient id="paint0_linear_2007_3509" x1="52.0579" y1="-6.92305" x2="55.9066" y2="84.7824" gradientUnits="userSpaceOnUse">
<stop stop-color="#384CFF"/>
<stop offset="1" stop-color="#98A2FF"/>
</linearGradient>
<linearGradient id="paint1_linear_2007_3509" x1="52.0579" y1="-6.92305" x2="55.9066" y2="84.7824" gradientUnits="userSpaceOnUse">
<stop stop-color="#384CFF"/>
<stop offset="1" stop-color="#98A2FF"/>
</linearGradient>
<linearGradient id="paint2_linear_2007_3509" x1="52.0579" y1="-6.92305" x2="55.9066" y2="84.7824" gradientUnits="userSpaceOnUse">
<stop stop-color="#384CFF"/>
<stop offset="1" stop-color="#98A2FF"/>
</linearGradient>
<linearGradient id="paint3_linear_2007_3509" x1="52.0579" y1="-6.92305" x2="55.9066" y2="84.7824" gradientUnits="userSpaceOnUse">
<stop stop-color="#384CFF"/>
<stop offset="1" stop-color="#98A2FF"/>
</linearGradient>
<linearGradient id="paint4_linear_2007_3509" x1="52.0579" y1="-6.92305" x2="55.9066" y2="84.7824" gradientUnits="userSpaceOnUse">
<stop stop-color="#384CFF"/>
<stop offset="1" stop-color="#98A2FF"/>
</linearGradient>
<linearGradient id="paint5_linear_2007_3509" x1="52.0579" y1="-6.92305" x2="55.9066" y2="84.7824" gradientUnits="userSpaceOnUse">
<stop stop-color="#384CFF"/>
<stop offset="1" stop-color="#98A2FF"/>
</linearGradient>
<linearGradient id="paint6_linear_2007_3509" x1="52.0579" y1="-6.92305" x2="55.9066" y2="84.7824" gradientUnits="userSpaceOnUse">
<stop stop-color="#384CFF"/>
<stop offset="1" stop-color="#98A2FF"/>
</linearGradient>
<linearGradient id="paint7_linear_2007_3509" x1="52.0579" y1="-6.92305" x2="55.9066" y2="84.7824" gradientUnits="userSpaceOnUse">
<stop stop-color="#384CFF"/>
<stop offset="1" stop-color="#98A2FF"/>
</linearGradient>
<linearGradient id="paint8_linear_2007_3509" x1="52.0579" y1="-6.92305" x2="55.9066" y2="84.7824" gradientUnits="userSpaceOnUse">
<stop stop-color="#384CFF"/>
<stop offset="1" stop-color="#98A2FF"/>
</linearGradient>
<linearGradient id="paint9_linear_2007_3509" x1="52.0579" y1="-6.92305" x2="55.9066" y2="84.7824" gradientUnits="userSpaceOnUse">
<stop stop-color="#384CFF"/>
<stop offset="1" stop-color="#98A2FF"/>
</linearGradient>
<linearGradient id="paint10_linear_2007_3509" x1="52.0579" y1="-6.92305" x2="55.9066" y2="84.7824" gradientUnits="userSpaceOnUse">
<stop stop-color="#384CFF"/>
<stop offset="1" stop-color="#98A2FF"/>
</linearGradient>
<linearGradient id="paint11_linear_2007_3509" x1="52.0579" y1="-6.92305" x2="55.9066" y2="84.7824" gradientUnits="userSpaceOnUse">
<stop stop-color="#384CFF"/>
<stop offset="1" stop-color="#98A2FF"/>
</linearGradient>
<linearGradient id="paint12_linear_2007_3509" x1="52.0579" y1="-6.92305" x2="55.9066" y2="84.7824" gradientUnits="userSpaceOnUse">
<stop stop-color="#384CFF"/>
<stop offset="1" stop-color="#98A2FF"/>
</linearGradient>
<linearGradient id="paint13_linear_2007_3509" x1="52.0579" y1="-6.92305" x2="55.9066" y2="84.7824" gradientUnits="userSpaceOnUse">
<stop stop-color="#384CFF"/>
<stop offset="1" stop-color="#98A2FF"/>
</linearGradient>
</defs>
</svg>
